<mxfile host="65bd71144e">
    <diagram id="z_7w-O_Xtt8AY72Mnwwb" name="Page-1">
        <mxGraphModel dx="1130" dy="779" grid="1" gridSize="10" guides="1" tooltips="1" connect="1" arrows="1" fold="1" page="1" pageScale="1" pageWidth="1654" pageHeight="1169" math="0" shadow="0">
            <root>
                <mxCell id="0"/>
                <mxCell id="1" parent="0"/>
                <mxCell id="20" style="edgeStyle=none;html=1;exitX=0.5;exitY=1;exitDx=0;exitDy=0;entryX=0.5;entryY=0;entryDx=0;entryDy=0;" parent="1" source="3" target="7" edge="1">
                    <mxGeometry relative="1" as="geometry"/>
                </mxCell>
                <mxCell id="3" value="&lt;span style=&quot;font-size: 15px;&quot;&gt;Symbol de Batman qui apparait (l'alerte)&lt;/span&gt;" style="rounded=1;whiteSpace=wrap;html=1;" parent="1" vertex="1">
                    <mxGeometry x="795" y="100" width="160" height="80" as="geometry"/>
                </mxCell>
                <mxCell id="5" value="&lt;p style=&quot;box-sizing: border-box; scroll-margin-top: calc(var(--site-header-height) + 20px); color: rgb(255, 255, 255); font-size: 19px; text-align: start; line-height: 120%;&quot;&gt;&lt;font face=&quot;Times New Roman&quot;&gt;&lt;span style=&quot;box-sizing: border-box; scroll-margin-top: calc(var(--site-header-height) + 20px); font-weight: bolder;&quot;&gt;Genre:&lt;/span&gt;&amp;nbsp;Action, mystere&lt;/font&gt;&lt;/p&gt;&lt;p style=&quot;box-sizing: border-box; scroll-margin-top: calc(var(--site-header-height) + 20px); color: rgb(255, 255, 255); font-size: 19px; text-align: start; line-height: 120%;&quot;&gt;&lt;font face=&quot;Times New Roman&quot;&gt;&lt;span style=&quot;box-sizing: border-box; scroll-margin-top: calc(var(--site-header-height) + 20px); font-weight: bolder;&quot;&gt;Inspiration:&lt;/span&gt;&amp;nbsp;&lt;a style=&quot;box-sizing: border-box; scroll-margin-top: calc(var(--site-header-height) + 20px); color: currentcolor; background-image: linear-gradient(0deg,var(--highlight),var(--highlight)); background-position: center bottom; background-repeat: no-repeat; background-size: 100% 40%; text-decoration-line: none; transition: background-size 0.1s cubic-bezier(0.455, 0.03, 0.515, 0.955) 75ms;&quot; href=&quot;https://www.imdb.com/title/tt1631867/&quot; rel=&quot;noopener noreferrer&quot; target=&quot;_blank&quot;&gt;B&lt;/a&gt;atman&lt;/font&gt;&lt;/p&gt;&lt;p style=&quot;box-sizing: border-box; scroll-margin-top: calc(var(--site-header-height) + 20px); color: rgb(255, 255, 255); font-size: 19px; text-align: start; line-height: 120%;&quot;&gt;&lt;font face=&quot;Times New Roman&quot;&gt;&lt;span style=&quot;box-sizing: border-box; scroll-margin-top: calc(var(--site-header-height) + 20px); font-weight: bolder;&quot;&gt;Nom:&lt;/span&gt;&amp;nbsp;Le retour du Sphinx&lt;/font&gt;&lt;/p&gt;&lt;p style=&quot;box-sizing: border-box; scroll-margin-top: calc(var(--site-header-height) + 20px); color: rgb(255, 255, 255); font-size: 19px; text-align: start; line-height: 120%;&quot;&gt;&lt;span style=&quot;background-color: initial; box-sizing: border-box; scroll-margin-top: calc(var(--site-header-height) + 20px); font-weight: bolder;&quot;&gt;&lt;font face=&quot;Times New Roman&quot;&gt;Palette:&amp;nbsp;&lt;/font&gt;&lt;/span&gt;&lt;/p&gt;&lt;p style=&quot;box-sizing: border-box; scroll-margin-top: calc(var(--site-header-height) + 20px); color: rgb(255, 255, 255); font-size: 19px; text-align: start; line-height: 120%;&quot;&gt;&lt;font face=&quot;Times New Roman&quot;&gt;&lt;span style=&quot;background-color: initial; margin: 0px; padding: 0px; user-select: text; -webkit-user-drag: none; -webkit-tap-highlight-color: transparent; line-height: 25px; font-variant-ligatures: none !important;&quot; lang=&quot;EN-US&quot; class=&quot;TextRun SCXO255945562 BCX9&quot; data-contrast=&quot;auto&quot;&gt;&lt;b style=&quot;&quot;&gt;Couleur de fond du site:&lt;/b&gt; #2F2E2C&lt;/span&gt;&lt;/font&gt;&lt;/p&gt;&lt;p style=&quot;box-sizing: border-box; scroll-margin-top: calc(var(--site-header-height) + 20px); color: rgb(255, 255, 255); font-size: 19px; text-align: start; line-height: 120%;&quot;&gt;&lt;font face=&quot;Times New Roman&quot;&gt;&lt;span style=&quot;background-color: initial; margin: 0px; padding: 0px; user-select: text; -webkit-user-drag: none; -webkit-tap-highlight-color: transparent; line-height: 25px; font-variant-ligatures: none !important;&quot; lang=&quot;EN-US&quot; class=&quot;TextRun SCXO255945562 BCX9&quot; data-contrast=&quot;auto&quot;&gt;&lt;b&gt;&lt;span style=&quot;margin: 0px; padding: 0px; user-select: text; -webkit-user-drag: none; -webkit-tap-highlight-color: transparent;&quot; class=&quot;NormalTextRun SCXO255945562 BCX9&quot;&gt;Couleur de fond du&amp;nbsp;&lt;/span&gt;&lt;span style=&quot;margin: 0px; padding: 0px; user-select: text; -webkit-user-drag: none; -webkit-tap-highlight-color: transparent; background-repeat: repeat-x; background-position: left bottom; background-image: url(&amp;quot;data:image/gif;base64,R0lGODlhBQAEAJECAP////8AAAAAAAAAACH5BAEAAAIALAAAAAAFAAQAAAIIlGAXCCHrTCgAOw==&amp;quot;); border-bottom: 1px solid transparent;&quot; class=&quot;SpellingError SCXO255945562 BCX9&quot;&gt;contenu&lt;/span&gt;&lt;/b&gt;&lt;span style=&quot;margin: 0px; padding: 0px; user-select: text; -webkit-user-drag: none; -webkit-tap-highlight-color: transparent;&quot; class=&quot;NormalTextRun SCXO255945562 BCX9&quot;&gt;&lt;b&gt;:&lt;/b&gt; #679BF1&lt;/span&gt;&lt;/span&gt;&lt;/font&gt;&lt;/p&gt;&lt;p style=&quot;box-sizing: border-box; scroll-margin-top: calc(var(--site-header-height) + 20px); color: rgb(255, 255, 255); font-size: 19px; text-align: start; line-height: 120%;&quot;&gt;&lt;font face=&quot;Times New Roman&quot;&gt;&lt;span style=&quot;background-color: initial; margin: 0px; padding: 0px; user-select: text; -webkit-user-drag: none; -webkit-tap-highlight-color: transparent; line-height: 25px; font-variant-ligatures: none !important;&quot; lang=&quot;EN-US&quot; class=&quot;TextRun SCXO255945562 BCX9&quot; data-contrast=&quot;auto&quot;&gt;&lt;b&gt;Couleur de la police:&lt;/b&gt; #050505&lt;/span&gt;&lt;/font&gt;&lt;/p&gt;&lt;p style=&quot;box-sizing: border-box; scroll-margin-top: calc(var(--site-header-height) + 20px); color: rgb(255, 255, 255); font-size: 19px; text-align: start; line-height: 120%;&quot;&gt;&lt;font face=&quot;Times New Roman&quot;&gt;&lt;span style=&quot;background-color: initial; margin: 0px; padding: 0px; user-select: text; -webkit-user-drag: none; -webkit-tap-highlight-color: transparent; line-height: 25px; font-variant-ligatures: none !important;&quot; lang=&quot;EN-US&quot; class=&quot;TextRun SCXO255945562 BCX9&quot; data-contrast=&quot;auto&quot;&gt;&lt;b&gt;Couleur de fond des boutons:&lt;/b&gt; #F8DE7E&lt;/span&gt;&lt;/font&gt;&lt;/p&gt;&lt;p style=&quot;box-sizing: border-box; scroll-margin-top: calc(var(--site-header-height) + 20px); color: rgb(255, 255, 255); font-size: 19px; text-align: start; line-height: 120%;&quot;&gt;&lt;font face=&quot;Times New Roman&quot;&gt;&lt;b&gt;&lt;span style=&quot;background-color: initial; margin: 0px; padding: 0px; user-select: text; -webkit-user-drag: none; -webkit-tap-highlight-color: transparent; line-height: 25px; font-variant-ligatures: none !important;&quot; lang=&quot;EN-US&quot; class=&quot;TextRun SCXO255945562 BCX9&quot; data-contrast=&quot;auto&quot;&gt;&lt;span style=&quot;margin: 0px; padding: 0px; user-select: text; -webkit-user-drag: none; -webkit-tap-highlight-color: transparent;&quot; class=&quot;NormalTextRun SCXO255945562 BCX9&quot;&gt;Couleur de fond des boutons&amp;nbsp;&lt;/span&gt;&lt;span style=&quot;margin: 0px; padding: 0px; user-select: text; -webkit-user-drag: none; -webkit-tap-highlight-color: transparent; background-repeat: repeat-x; background-position: left bottom; background-image: url(&amp;quot;data:image/gif;base64,R0lGODlhBQAEAJECAP////8AAAAAAAAAACH5BAEAAAIALAAAAAAFAAQAAAIIlGAXCCHrTCgAOw==&amp;quot;); border-bottom: 1px solid transparent;&quot; class=&quot;SpellingError SCXO255945562 BCX9&quot;&gt;en&lt;/span&gt;&lt;span style=&quot;margin: 0px; padding: 0px; user-select: text; -webkit-user-drag: none; -webkit-tap-highlight-color: transparent;&quot; class=&quot;NormalTextRun SCXO255945562 BCX9&quot;&gt;&amp;nbsp;&lt;/span&gt;&lt;/span&gt;&lt;span style=&quot;background-color: initial; margin: 0px; padding: 0px; user-select: text; -webkit-user-drag: none; -webkit-tap-highlight-color: transparent; font-style: italic; line-height: 25px; font-variant-ligatures: none !important;&quot; lang=&quot;EN-US&quot; class=&quot;TextRun SCXO255945562 BCX9&quot; data-contrast=&quot;auto&quot;&gt;hover&lt;/span&gt;&lt;/b&gt;&lt;span style=&quot;background-color: initial; margin: 0px; padding: 0px; user-select: text; -webkit-user-drag: none; -webkit-tap-highlight-color: transparent; line-height: 25px; font-variant-ligatures: none !important;&quot; lang=&quot;EN-US&quot; class=&quot;TextRun SCXO255945562 BCX9&quot; data-contrast=&quot;auto&quot;&gt;&lt;b&gt;:&lt;/b&gt; #FFC40A&lt;/span&gt;&lt;/font&gt;&lt;/p&gt;&lt;p style=&quot;box-sizing: border-box; scroll-margin-top: calc(var(--site-header-height) + 20px); color: rgb(255, 255, 255); font-size: 19px; text-align: start; line-height: 120%;&quot;&gt;&lt;span style=&quot;background-color: initial; margin: 0px; padding: 0px; user-select: text; -webkit-user-drag: none; -webkit-tap-highlight-color: transparent; line-height: 25px; font-variant-ligatures: none !important;&quot; lang=&quot;EN-US&quot; class=&quot;TextRun SCXO255945562 BCX9&quot; data-contrast=&quot;auto&quot;&gt;&lt;font face=&quot;Times New Roman&quot;&gt;&lt;b&gt;Couleur de la police des boutons:&lt;/b&gt; #050505&lt;/font&gt;&lt;/span&gt;&lt;/p&gt;" style="text;html=1;align=center;verticalAlign=middle;resizable=0;points=[];autosize=1;strokeColor=none;fillColor=none;" parent="1" vertex="1">
                    <mxGeometry width="420" height="460" as="geometry"/>
                </mxCell>
                <mxCell id="22" value="&lt;font style=&quot;font-size: 11px;&quot;&gt;Resoudre l'enigme&lt;/font&gt;" style="edgeStyle=none;html=1;exitX=0.5;exitY=1;exitDx=0;exitDy=0;entryX=0.5;entryY=0;entryDx=0;entryDy=0;" parent="1" source="7" target="21" edge="1">
                    <mxGeometry relative="1" as="geometry"/>
                </mxCell>
                <mxCell id="44" value="Analyser &lt;br&gt;l'immeuble" style="edgeStyle=orthogonalEdgeStyle;html=1;exitX=1;exitY=0.5;exitDx=0;exitDy=0;fontSize=11;elbow=vertical;" parent="1" source="7" target="26" edge="1">
                    <mxGeometry relative="1" as="geometry"/>
                </mxCell>
                <mxCell id="47" value="&lt;span style=&quot;font-size: 12px;&quot;&gt;Abandonner&lt;/span&gt;" style="edgeStyle=orthogonalEdgeStyle;html=1;exitX=0;exitY=0.5;exitDx=0;exitDy=0;entryX=1;entryY=0.5;entryDx=0;entryDy=0;fontSize=14;elbow=vertical;" parent="1" source="7" target="23" edge="1">
                    <mxGeometry relative="1" as="geometry"/>
                </mxCell>
                <mxCell id="7" value="L'enigme&lt;br&gt;du Sphinx" style="rhombus;whiteSpace=wrap;html=1;labelBackgroundColor=none;fontSize=15;" parent="1" vertex="1">
                    <mxGeometry x="801" y="220" width="148" height="148" as="geometry"/>
                </mxCell>
                <mxCell id="14" style="edgeStyle=none;html=1;entryX=0.5;entryY=0;entryDx=0;entryDy=0;entryPerimeter=0;fontSize=15;" parent="1" edge="1">
                    <mxGeometry relative="1" as="geometry">
                        <mxPoint x="1195" y="484.75" as="sourcePoint"/>
                        <mxPoint x="1195" y="485" as="targetPoint"/>
                    </mxGeometry>
                </mxCell>
                <mxCell id="66" value="Fuir" style="edgeStyle=orthogonalEdgeStyle;html=1;exitX=0;exitY=0.5;exitDx=0;exitDy=0;entryX=0.5;entryY=1;entryDx=0;entryDy=0;fontSize=12;elbow=vertical;" parent="1" source="16" target="23" edge="1">
                    <mxGeometry relative="1" as="geometry"/>
                </mxCell>
                <mxCell id="16" value="La bombe est sur &lt;br&gt;le point d'exploser" style="rhombus;whiteSpace=wrap;html=1;labelBackgroundColor=none;fontSize=15;" parent="1" vertex="1">
                    <mxGeometry x="801" y="530" width="148" height="148" as="geometry"/>
                </mxCell>
                <mxCell id="18" value="&lt;span style=&quot;font-size: 15px;&quot;&gt;Le Sphinx tient un immeuble en otage grace a une bombe&lt;/span&gt;" style="rounded=1;whiteSpace=wrap;html=1;" parent="1" vertex="1">
                    <mxGeometry x="920" y="40" width="160" height="80" as="geometry"/>
                </mxCell>
                <mxCell id="21" value="Plus loin dans l'immeuble, &lt;br&gt;un ecran affiche &lt;br&gt;un compte a rebours" style="rounded=1;whiteSpace=wrap;html=1;" parent="1" vertex="1">
                    <mxGeometry x="795" y="410" width="160" height="80" as="geometry"/>
                </mxCell>
                <mxCell id="23" value="&lt;span style=&quot;font-size: 15px;&quot;&gt;Votre reputation&amp;nbsp;&lt;br&gt;est ruinee&lt;/span&gt;" style="rounded=1;whiteSpace=wrap;html=1;" parent="1" vertex="1">
                    <mxGeometry x="550" y="254" width="160" height="80" as="geometry"/>
                </mxCell>
                <mxCell id="42" style="edgeStyle=orthogonalEdgeStyle;html=1;exitX=1;exitY=0.5;exitDx=0;exitDy=0;entryX=0.5;entryY=0;entryDx=0;entryDy=0;fontSize=11;elbow=vertical;" parent="1" source="26" target="7" edge="1">
                    <mxGeometry relative="1" as="geometry">
                        <Array as="points">
                            <mxPoint x="1180" y="294"/>
                            <mxPoint x="1180" y="210"/>
                            <mxPoint x="875" y="210"/>
                        </Array>
                    </mxGeometry>
                </mxCell>
                <mxCell id="26" value="&lt;font style=&quot;font-size: 15px;&quot;&gt;Vous trouver la carte de l'immeuble!&lt;/font&gt;" style="rounded=1;whiteSpace=wrap;html=1;fillColor=#1ba1e2;fontColor=#ffffff;strokeColor=#006EAF;" parent="1" vertex="1">
                    <mxGeometry x="1040" y="254" width="160" height="80" as="geometry"/>
                </mxCell>
                <mxCell id="45" value="" style="edgeStyle=none;html=1;exitX=0.5;exitY=1;exitDx=0;exitDy=0;entryX=0.5;entryY=0;entryDx=0;entryDy=0;" parent="1" edge="1">
                    <mxGeometry relative="1" as="geometry">
                        <mxPoint x="875" y="490" as="sourcePoint"/>
                        <mxPoint x="875" y="532" as="targetPoint"/>
                    </mxGeometry>
                </mxCell>
                <mxCell id="48" value="Affronter le Sphinx (grace a la carte)" style="edgeStyle=none;html=1;exitX=0.5;exitY=1;exitDx=0;exitDy=0;entryX=0.5;entryY=0;entryDx=0;entryDy=0;" parent="1" source="51" target="52" edge="1">
                    <mxGeometry relative="1" as="geometry"/>
                </mxCell>
                <mxCell id="49" value="Le convaincre&lt;br&gt;de se rendre" style="edgeStyle=orthogonalEdgeStyle;html=1;exitX=1;exitY=0.5;exitDx=0;exitDy=0;fontSize=11;elbow=vertical;" parent="1" source="51" target="54" edge="1">
                    <mxGeometry relative="1" as="geometry"/>
                </mxCell>
                <mxCell id="50" value="&lt;span style=&quot;font-size: 12px;&quot;&gt;Resoudre&lt;br&gt;l'enigme&lt;br&gt;&lt;/span&gt;" style="edgeStyle=orthogonalEdgeStyle;html=1;exitX=0;exitY=0.5;exitDx=0;exitDy=0;entryX=1;entryY=0.5;entryDx=0;entryDy=0;fontSize=14;elbow=vertical;" parent="1" source="51" target="53" edge="1">
                    <mxGeometry relative="1" as="geometry"/>
                </mxCell>
                <mxCell id="51" value="L'enigme final" style="rhombus;whiteSpace=wrap;html=1;labelBackgroundColor=none;fontSize=15;" parent="1" vertex="1">
                    <mxGeometry x="801" y="840" width="148" height="148" as="geometry"/>
                </mxCell>
                <mxCell id="52" value="Vous trouver, battez et capturer&amp;nbsp;le Sphinx!" style="rounded=1;whiteSpace=wrap;html=1;" parent="1" vertex="1">
                    <mxGeometry x="795" y="1030" width="160" height="80" as="geometry"/>
                </mxCell>
                <mxCell id="53" value="Le Sphinx s'enfuit durant&amp;nbsp;&lt;br&gt;la confusion" style="rounded=1;whiteSpace=wrap;html=1;" parent="1" vertex="1">
                    <mxGeometry x="550" y="874" width="160" height="80" as="geometry"/>
                </mxCell>
                <mxCell id="54" value="Le Sphinx refuse&amp;nbsp;&lt;br&gt;et s'enfuit" style="rounded=1;whiteSpace=wrap;html=1;" parent="1" vertex="1">
                    <mxGeometry x="1040" y="874" width="160" height="80" as="geometry"/>
                </mxCell>
                <mxCell id="55" value="Desamorcer la bombe" style="edgeStyle=none;html=1;exitX=0.5;exitY=1;exitDx=0;exitDy=0;entryX=0.5;entryY=0;entryDx=0;entryDy=0;" parent="1" target="59" edge="1">
                    <mxGeometry relative="1" as="geometry">
                        <mxPoint x="875" y="678" as="sourcePoint"/>
                    </mxGeometry>
                </mxCell>
                <mxCell id="56" value="Appeler a&amp;nbsp;&lt;br&gt;l'aide" style="edgeStyle=orthogonalEdgeStyle;html=1;exitX=1;exitY=0.5;exitDx=0;exitDy=0;fontSize=11;elbow=vertical;" parent="1" target="61" edge="1">
                    <mxGeometry x="0.011" relative="1" as="geometry">
                        <mxPoint x="949" y="604" as="sourcePoint"/>
                        <mxPoint as="offset"/>
                    </mxGeometry>
                </mxCell>
                <mxCell id="59" value="Le Sphinx vous attend derriere une barriere, une sortie derriere lui" style="rounded=1;whiteSpace=wrap;html=1;" parent="1" vertex="1">
                    <mxGeometry x="795" y="720" width="160" height="80" as="geometry"/>
                </mxCell>
                <mxCell id="61" value="Il n'y a pas assez de temps&lt;br&gt;pour recevoir de l'aide.&lt;br&gt;Vous mourrez..." style="rounded=1;whiteSpace=wrap;html=1;" parent="1" vertex="1">
                    <mxGeometry x="1040" y="564" width="160" height="80" as="geometry"/>
                </mxCell>
                <mxCell id="62" value="" style="edgeStyle=none;html=1;exitX=0.5;exitY=1;exitDx=0;exitDy=0;entryX=0.5;entryY=0;entryDx=0;entryDy=0;" parent="1" edge="1">
                    <mxGeometry relative="1" as="geometry">
                        <mxPoint x="875" y="800" as="sourcePoint"/>
                        <mxPoint x="875" y="842" as="targetPoint"/>
                    </mxGeometry>
                </mxCell>
            </root>
        </mxGraphModel>
    </diagram>
</mxfile>